<mxfile host="Electron" modified="2024-06-07T16:36:19.433Z" agent="Mozilla/5.0 (Macintosh; Intel Mac OS X 10_15_7) AppleWebKit/537.36 (KHTML, like Gecko) draw.io/24.4.13 Chrome/124.0.6367.207 Electron/30.0.6 Safari/537.36" etag="C0yDo2oZVv880zCk6O3S" version="24.4.13" type="device">
  <diagram name="Full Architecture" id="fVVNRTvoR40_fQAt1znp">
    <mxGraphModel dx="1687" dy="1832" grid="1" gridSize="10" guides="1" tooltips="1" connect="1" arrows="1" fold="1" page="1" pageScale="1" pageWidth="1169" pageHeight="827" math="0" shadow="0">
      <root>
        <mxCell id="0" />
        <mxCell id="1" parent="0" />
        <mxCell id="ec1KaOO2xXqTTTjsOEB1-13" value="Inspection VPC" style="points=[[0,0],[0.25,0],[0.5,0],[0.75,0],[1,0],[1,0.25],[1,0.5],[1,0.75],[1,1],[0.75,1],[0.5,1],[0.25,1],[0,1],[0,0.75],[0,0.5],[0,0.25]];outlineConnect=0;gradientColor=none;html=1;whiteSpace=wrap;fontSize=12;fontStyle=0;container=1;pointerEvents=0;collapsible=0;recursiveResize=0;shape=mxgraph.aws4.group;grIcon=mxgraph.aws4.group_vpc2;strokeColor=#8C4FFF;fillColor=none;verticalAlign=top;align=left;spacingLeft=30;fontColor=#AAB7B8;dashed=0;" vertex="1" parent="1">
          <mxGeometry x="190" y="-120" width="130" height="210" as="geometry" />
        </mxCell>
        <mxCell id="ec1KaOO2xXqTTTjsOEB1-14" value="" style="sketch=0;outlineConnect=0;fontColor=#232F3E;gradientColor=none;fillColor=#8C4FFF;strokeColor=none;dashed=0;verticalLabelPosition=bottom;verticalAlign=top;align=center;html=1;fontSize=12;fontStyle=0;aspect=fixed;pointerEvents=1;shape=mxgraph.aws4.internet_gateway;" vertex="1" parent="ec1KaOO2xXqTTTjsOEB1-13">
          <mxGeometry x="110" y="20" width="40" height="40" as="geometry" />
        </mxCell>
        <mxCell id="ec1KaOO2xXqTTTjsOEB1-15" value="NAT gateway" style="sketch=0;outlineConnect=0;fontColor=#232F3E;gradientColor=none;fillColor=#8C4FFF;strokeColor=none;dashed=0;verticalLabelPosition=bottom;verticalAlign=top;align=center;html=1;fontSize=12;fontStyle=0;aspect=fixed;pointerEvents=1;shape=mxgraph.aws4.nat_gateway;" vertex="1" parent="ec1KaOO2xXqTTTjsOEB1-13">
          <mxGeometry x="45" y="40" width="40" height="40" as="geometry" />
        </mxCell>
        <mxCell id="ec1KaOO2xXqTTTjsOEB1-16" value="Firewall endpoint" style="sketch=0;outlineConnect=0;fontColor=#232F3E;gradientColor=none;fillColor=#DD344C;strokeColor=none;dashed=0;verticalLabelPosition=bottom;verticalAlign=top;align=center;html=1;fontSize=12;fontStyle=0;aspect=fixed;pointerEvents=1;shape=mxgraph.aws4.network_firewall_endpoints;" vertex="1" parent="ec1KaOO2xXqTTTjsOEB1-13">
          <mxGeometry x="40" y="120" width="50" height="50" as="geometry" />
        </mxCell>
        <mxCell id="ec1KaOO2xXqTTTjsOEB1-18" style="edgeStyle=orthogonalEdgeStyle;rounded=0;orthogonalLoop=1;jettySize=auto;html=1;endArrow=none;endFill=0;dashed=1;" edge="1" parent="1" source="ec1KaOO2xXqTTTjsOEB1-17" target="ec1KaOO2xXqTTTjsOEB1-16">
          <mxGeometry relative="1" as="geometry" />
        </mxCell>
        <mxCell id="ec1KaOO2xXqTTTjsOEB1-17" value="AWS Network Firewall" style="sketch=0;points=[[0,0,0],[0.25,0,0],[0.5,0,0],[0.75,0,0],[1,0,0],[0,1,0],[0.25,1,0],[0.5,1,0],[0.75,1,0],[1,1,0],[0,0.25,0],[0,0.5,0],[0,0.75,0],[1,0.25,0],[1,0.5,0],[1,0.75,0]];outlineConnect=0;fontColor=#232F3E;fillColor=#DD344C;strokeColor=#ffffff;dashed=0;verticalLabelPosition=bottom;verticalAlign=top;align=center;html=1;fontSize=12;fontStyle=0;aspect=fixed;shape=mxgraph.aws4.resourceIcon;resIcon=mxgraph.aws4.network_firewall;" vertex="1" parent="1">
          <mxGeometry x="90" width="50" height="50" as="geometry" />
        </mxCell>
        <mxCell id="ec1KaOO2xXqTTTjsOEB1-26" value="Shared Services" style="points=[[0,0],[0.25,0],[0.5,0],[0.75,0],[1,0],[1,0.25],[1,0.5],[1,0.75],[1,1],[0.75,1],[0.5,1],[0.25,1],[0,1],[0,0.75],[0,0.5],[0,0.25]];outlineConnect=0;gradientColor=none;html=1;whiteSpace=wrap;fontSize=12;fontStyle=0;container=1;pointerEvents=0;collapsible=0;recursiveResize=0;shape=mxgraph.aws4.group;grIcon=mxgraph.aws4.group_vpc2;strokeColor=#8C4FFF;fillColor=none;verticalAlign=top;align=left;spacingLeft=30;fontColor=#AAB7B8;dashed=0;" vertex="1" parent="1">
          <mxGeometry x="340" y="-20" width="130" height="110" as="geometry" />
        </mxCell>
        <mxCell id="ec1KaOO2xXqTTTjsOEB1-27" value="VPC endpoint&lt;div&gt;(Amazon S3)&lt;/div&gt;" style="sketch=0;outlineConnect=0;fontColor=#232F3E;gradientColor=none;fillColor=#8C4FFF;strokeColor=none;dashed=0;verticalLabelPosition=bottom;verticalAlign=top;align=center;html=1;fontSize=12;fontStyle=0;aspect=fixed;pointerEvents=1;shape=mxgraph.aws4.endpoints;" vertex="1" parent="ec1KaOO2xXqTTTjsOEB1-26">
          <mxGeometry x="45" y="30" width="40" height="40" as="geometry" />
        </mxCell>
        <mxCell id="ec1KaOO2xXqTTTjsOEB1-28" value="Inspection VPC" style="points=[[0,0],[0.25,0],[0.5,0],[0.75,0],[1,0],[1,0.25],[1,0.5],[1,0.75],[1,1],[0.75,1],[0.5,1],[0.25,1],[0,1],[0,0.75],[0,0.5],[0,0.25]];outlineConnect=0;gradientColor=none;html=1;whiteSpace=wrap;fontSize=12;fontStyle=0;container=1;pointerEvents=0;collapsible=0;recursiveResize=0;shape=mxgraph.aws4.group;grIcon=mxgraph.aws4.group_vpc2;strokeColor=#8C4FFF;fillColor=none;verticalAlign=top;align=left;spacingLeft=30;fontColor=#AAB7B8;dashed=0;" vertex="1" parent="1">
          <mxGeometry x="650" y="-120" width="130" height="210" as="geometry" />
        </mxCell>
        <mxCell id="ec1KaOO2xXqTTTjsOEB1-29" value="" style="sketch=0;outlineConnect=0;fontColor=#232F3E;gradientColor=none;fillColor=#8C4FFF;strokeColor=none;dashed=0;verticalLabelPosition=bottom;verticalAlign=top;align=center;html=1;fontSize=12;fontStyle=0;aspect=fixed;pointerEvents=1;shape=mxgraph.aws4.internet_gateway;" vertex="1" parent="ec1KaOO2xXqTTTjsOEB1-28">
          <mxGeometry x="110" y="20" width="40" height="40" as="geometry" />
        </mxCell>
        <mxCell id="ec1KaOO2xXqTTTjsOEB1-30" value="NAT gateway" style="sketch=0;outlineConnect=0;fontColor=#232F3E;gradientColor=none;fillColor=#8C4FFF;strokeColor=none;dashed=0;verticalLabelPosition=bottom;verticalAlign=top;align=center;html=1;fontSize=12;fontStyle=0;aspect=fixed;pointerEvents=1;shape=mxgraph.aws4.nat_gateway;" vertex="1" parent="ec1KaOO2xXqTTTjsOEB1-28">
          <mxGeometry x="45" y="40" width="40" height="40" as="geometry" />
        </mxCell>
        <mxCell id="ec1KaOO2xXqTTTjsOEB1-31" value="Firewall endpoint" style="sketch=0;outlineConnect=0;fontColor=#232F3E;gradientColor=none;fillColor=#DD344C;strokeColor=none;dashed=0;verticalLabelPosition=bottom;verticalAlign=top;align=center;html=1;fontSize=12;fontStyle=0;aspect=fixed;pointerEvents=1;shape=mxgraph.aws4.network_firewall_endpoints;" vertex="1" parent="ec1KaOO2xXqTTTjsOEB1-28">
          <mxGeometry x="40" y="120" width="50" height="50" as="geometry" />
        </mxCell>
        <mxCell id="ec1KaOO2xXqTTTjsOEB1-32" style="edgeStyle=orthogonalEdgeStyle;rounded=0;orthogonalLoop=1;jettySize=auto;html=1;endArrow=none;endFill=0;dashed=1;" edge="1" parent="1" source="ec1KaOO2xXqTTTjsOEB1-33" target="ec1KaOO2xXqTTTjsOEB1-31">
          <mxGeometry relative="1" as="geometry" />
        </mxCell>
        <mxCell id="ec1KaOO2xXqTTTjsOEB1-33" value="AWS Network Firewall" style="sketch=0;points=[[0,0,0],[0.25,0,0],[0.5,0,0],[0.75,0,0],[1,0,0],[0,1,0],[0.25,1,0],[0.5,1,0],[0.75,1,0],[1,1,0],[0,0.25,0],[0,0.5,0],[0,0.75,0],[1,0.25,0],[1,0.5,0],[1,0.75,0]];outlineConnect=0;fontColor=#232F3E;fillColor=#DD344C;strokeColor=#ffffff;dashed=0;verticalLabelPosition=bottom;verticalAlign=top;align=center;html=1;fontSize=12;fontStyle=0;aspect=fixed;shape=mxgraph.aws4.resourceIcon;resIcon=mxgraph.aws4.network_firewall;" vertex="1" parent="1">
          <mxGeometry x="557" width="50" height="50" as="geometry" />
        </mxCell>
        <mxCell id="ec1KaOO2xXqTTTjsOEB1-34" value="Shared Services" style="points=[[0,0],[0.25,0],[0.5,0],[0.75,0],[1,0],[1,0.25],[1,0.5],[1,0.75],[1,1],[0.75,1],[0.5,1],[0.25,1],[0,1],[0,0.75],[0,0.5],[0,0.25]];outlineConnect=0;gradientColor=none;html=1;whiteSpace=wrap;fontSize=12;fontStyle=0;container=1;pointerEvents=0;collapsible=0;recursiveResize=0;shape=mxgraph.aws4.group;grIcon=mxgraph.aws4.group_vpc2;strokeColor=#8C4FFF;fillColor=none;verticalAlign=top;align=left;spacingLeft=30;fontColor=#AAB7B8;dashed=0;" vertex="1" parent="1">
          <mxGeometry x="800" y="-20" width="130" height="110" as="geometry" />
        </mxCell>
        <mxCell id="ec1KaOO2xXqTTTjsOEB1-35" value="VPC endpoint&lt;div&gt;(Amazon S3)&lt;/div&gt;" style="sketch=0;outlineConnect=0;fontColor=#232F3E;gradientColor=none;fillColor=#8C4FFF;strokeColor=none;dashed=0;verticalLabelPosition=bottom;verticalAlign=top;align=center;html=1;fontSize=12;fontStyle=0;aspect=fixed;pointerEvents=1;shape=mxgraph.aws4.endpoints;" vertex="1" parent="ec1KaOO2xXqTTTjsOEB1-34">
          <mxGeometry x="45" y="30" width="40" height="40" as="geometry" />
        </mxCell>
        <mxCell id="ec1KaOO2xXqTTTjsOEB1-36" value="Inspection VPC" style="points=[[0,0],[0.25,0],[0.5,0],[0.75,0],[1,0],[1,0.25],[1,0.5],[1,0.75],[1,1],[0.75,1],[0.5,1],[0.25,1],[0,1],[0,0.75],[0,0.5],[0,0.25]];outlineConnect=0;gradientColor=none;html=1;whiteSpace=wrap;fontSize=12;fontStyle=0;container=1;pointerEvents=0;collapsible=0;recursiveResize=0;shape=mxgraph.aws4.group;grIcon=mxgraph.aws4.group_vpc2;strokeColor=#8C4FFF;fillColor=none;verticalAlign=top;align=left;spacingLeft=30;fontColor=#AAB7B8;dashed=0;" vertex="1" parent="1">
          <mxGeometry x="1110" y="-120" width="130" height="210" as="geometry" />
        </mxCell>
        <mxCell id="ec1KaOO2xXqTTTjsOEB1-37" value="" style="sketch=0;outlineConnect=0;fontColor=#232F3E;gradientColor=none;fillColor=#8C4FFF;strokeColor=none;dashed=0;verticalLabelPosition=bottom;verticalAlign=top;align=center;html=1;fontSize=12;fontStyle=0;aspect=fixed;pointerEvents=1;shape=mxgraph.aws4.internet_gateway;" vertex="1" parent="ec1KaOO2xXqTTTjsOEB1-36">
          <mxGeometry x="110" y="20" width="40" height="40" as="geometry" />
        </mxCell>
        <mxCell id="ec1KaOO2xXqTTTjsOEB1-38" value="NAT gateway" style="sketch=0;outlineConnect=0;fontColor=#232F3E;gradientColor=none;fillColor=#8C4FFF;strokeColor=none;dashed=0;verticalLabelPosition=bottom;verticalAlign=top;align=center;html=1;fontSize=12;fontStyle=0;aspect=fixed;pointerEvents=1;shape=mxgraph.aws4.nat_gateway;" vertex="1" parent="ec1KaOO2xXqTTTjsOEB1-36">
          <mxGeometry x="45" y="40" width="40" height="40" as="geometry" />
        </mxCell>
        <mxCell id="ec1KaOO2xXqTTTjsOEB1-39" value="Firewall endpoint" style="sketch=0;outlineConnect=0;fontColor=#232F3E;gradientColor=none;fillColor=#DD344C;strokeColor=none;dashed=0;verticalLabelPosition=bottom;verticalAlign=top;align=center;html=1;fontSize=12;fontStyle=0;aspect=fixed;pointerEvents=1;shape=mxgraph.aws4.network_firewall_endpoints;" vertex="1" parent="ec1KaOO2xXqTTTjsOEB1-36">
          <mxGeometry x="40" y="120" width="50" height="50" as="geometry" />
        </mxCell>
        <mxCell id="ec1KaOO2xXqTTTjsOEB1-40" style="edgeStyle=orthogonalEdgeStyle;rounded=0;orthogonalLoop=1;jettySize=auto;html=1;endArrow=none;endFill=0;dashed=1;" edge="1" parent="1" source="ec1KaOO2xXqTTTjsOEB1-41" target="ec1KaOO2xXqTTTjsOEB1-39">
          <mxGeometry relative="1" as="geometry" />
        </mxCell>
        <mxCell id="ec1KaOO2xXqTTTjsOEB1-41" value="AWS Network Firewall" style="sketch=0;points=[[0,0,0],[0.25,0,0],[0.5,0,0],[0.75,0,0],[1,0,0],[0,1,0],[0.25,1,0],[0.5,1,0],[0.75,1,0],[1,1,0],[0,0.25,0],[0,0.5,0],[0,0.75,0],[1,0.25,0],[1,0.5,0],[1,0.75,0]];outlineConnect=0;fontColor=#232F3E;fillColor=#DD344C;strokeColor=#ffffff;dashed=0;verticalLabelPosition=bottom;verticalAlign=top;align=center;html=1;fontSize=12;fontStyle=0;aspect=fixed;shape=mxgraph.aws4.resourceIcon;resIcon=mxgraph.aws4.network_firewall;" vertex="1" parent="1">
          <mxGeometry x="1010" width="50" height="50" as="geometry" />
        </mxCell>
        <mxCell id="ec1KaOO2xXqTTTjsOEB1-42" value="Shared Services" style="points=[[0,0],[0.25,0],[0.5,0],[0.75,0],[1,0],[1,0.25],[1,0.5],[1,0.75],[1,1],[0.75,1],[0.5,1],[0.25,1],[0,1],[0,0.75],[0,0.5],[0,0.25]];outlineConnect=0;gradientColor=none;html=1;whiteSpace=wrap;fontSize=12;fontStyle=0;container=1;pointerEvents=0;collapsible=0;recursiveResize=0;shape=mxgraph.aws4.group;grIcon=mxgraph.aws4.group_vpc2;strokeColor=#8C4FFF;fillColor=none;verticalAlign=top;align=left;spacingLeft=30;fontColor=#AAB7B8;dashed=0;" vertex="1" parent="1">
          <mxGeometry x="1260" y="-20" width="130" height="110" as="geometry" />
        </mxCell>
        <mxCell id="ec1KaOO2xXqTTTjsOEB1-43" value="VPC endpoint&lt;div&gt;(Amazon S3)&lt;/div&gt;" style="sketch=0;outlineConnect=0;fontColor=#232F3E;gradientColor=none;fillColor=#8C4FFF;strokeColor=none;dashed=0;verticalLabelPosition=bottom;verticalAlign=top;align=center;html=1;fontSize=12;fontStyle=0;aspect=fixed;pointerEvents=1;shape=mxgraph.aws4.endpoints;" vertex="1" parent="ec1KaOO2xXqTTTjsOEB1-42">
          <mxGeometry x="45" y="30" width="40" height="40" as="geometry" />
        </mxCell>
        <mxCell id="ec1KaOO2xXqTTTjsOEB1-44" value="Networking AWS Account" style="points=[[0,0],[0.25,0],[0.5,0],[0.75,0],[1,0],[1,0.25],[1,0.5],[1,0.75],[1,1],[0.75,1],[0.5,1],[0.25,1],[0,1],[0,0.75],[0,0.5],[0,0.25]];outlineConnect=0;gradientColor=none;html=1;whiteSpace=wrap;fontSize=12;fontStyle=0;container=1;pointerEvents=0;collapsible=0;recursiveResize=0;shape=mxgraph.aws4.group;grIcon=mxgraph.aws4.group_account;strokeColor=#CD2264;fillColor=none;verticalAlign=top;align=left;spacingLeft=30;fontColor=#CD2264;dashed=0;" vertex="1" parent="1">
          <mxGeometry x="40" y="-330" width="1410" height="860" as="geometry" />
        </mxCell>
        <mxCell id="ec1KaOO2xXqTTTjsOEB1-45" value="Region 1" style="points=[[0,0],[0.25,0],[0.5,0],[0.75,0],[1,0],[1,0.25],[1,0.5],[1,0.75],[1,1],[0.75,1],[0.5,1],[0.25,1],[0,1],[0,0.75],[0,0.5],[0,0.25]];outlineConnect=0;gradientColor=none;html=1;whiteSpace=wrap;fontSize=12;fontStyle=0;container=1;pointerEvents=0;collapsible=0;recursiveResize=0;shape=mxgraph.aws4.group;grIcon=mxgraph.aws4.group_region;strokeColor=#00A4A6;fillColor=none;verticalAlign=top;align=left;spacingLeft=30;fontColor=#147EBA;dashed=1;" vertex="1" parent="ec1KaOO2xXqTTTjsOEB1-44">
          <mxGeometry x="10" y="130" width="460" height="1030" as="geometry" />
        </mxCell>
        <mxCell id="ec1KaOO2xXqTTTjsOEB1-59" style="edgeStyle=orthogonalEdgeStyle;rounded=0;orthogonalLoop=1;jettySize=auto;html=1;dashed=1;" edge="1" parent="ec1KaOO2xXqTTTjsOEB1-45" source="ec1KaOO2xXqTTTjsOEB1-56" target="ec1KaOO2xXqTTTjsOEB1-58">
          <mxGeometry relative="1" as="geometry" />
        </mxCell>
        <mxCell id="ec1KaOO2xXqTTTjsOEB1-56" value="Amazon EventBridge" style="sketch=0;points=[[0,0,0],[0.25,0,0],[0.5,0,0],[0.75,0,0],[1,0,0],[0,1,0],[0.25,1,0],[0.5,1,0],[0.75,1,0],[1,1,0],[0,0.25,0],[0,0.5,0],[0,0.75,0],[1,0.25,0],[1,0.5,0],[1,0.75,0]];outlineConnect=0;fontColor=#232F3E;fillColor=#E7157B;strokeColor=#ffffff;dashed=0;verticalLabelPosition=bottom;verticalAlign=top;align=center;html=1;fontSize=12;fontStyle=0;aspect=fixed;shape=mxgraph.aws4.resourceIcon;resIcon=mxgraph.aws4.eventbridge;" vertex="1" parent="ec1KaOO2xXqTTTjsOEB1-45">
          <mxGeometry x="35" y="630" width="60" height="60" as="geometry" />
        </mxCell>
        <mxCell id="ec1KaOO2xXqTTTjsOEB1-58" value="Lambda function" style="sketch=0;points=[[0,0,0],[0.25,0,0],[0.5,0,0],[0.75,0,0],[1,0,0],[0,1,0],[0.25,1,0],[0.5,1,0],[0.75,1,0],[1,1,0],[0,0.25,0],[0,0.5,0],[0,0.75,0],[1,0.25,0],[1,0.5,0],[1,0.75,0]];outlineConnect=0;fontColor=#232F3E;fillColor=#ED7100;strokeColor=#ffffff;dashed=0;verticalLabelPosition=bottom;verticalAlign=top;align=center;html=1;fontSize=12;fontStyle=0;aspect=fixed;shape=mxgraph.aws4.resourceIcon;resIcon=mxgraph.aws4.lambda;" vertex="1" parent="ec1KaOO2xXqTTTjsOEB1-45">
          <mxGeometry x="160" y="635" width="50" height="50" as="geometry" />
        </mxCell>
        <mxCell id="ec1KaOO2xXqTTTjsOEB1-94" value="Spoke AWS Account" style="points=[[0,0],[0.25,0],[0.5,0],[0.75,0],[1,0],[1,0.25],[1,0.5],[1,0.75],[1,1],[0.75,1],[0.5,1],[0.25,1],[0,1],[0,0.75],[0,0.5],[0,0.25]];outlineConnect=0;gradientColor=none;html=1;whiteSpace=wrap;fontSize=12;fontStyle=0;container=1;pointerEvents=0;collapsible=0;recursiveResize=0;shape=mxgraph.aws4.group;grIcon=mxgraph.aws4.group_account;strokeColor=#CD2264;fillColor=none;verticalAlign=top;align=left;spacingLeft=30;fontColor=#CD2264;dashed=0;" vertex="1" parent="ec1KaOO2xXqTTTjsOEB1-45">
          <mxGeometry x="70" y="750" width="383" height="260" as="geometry" />
        </mxCell>
        <mxCell id="ec1KaOO2xXqTTTjsOEB1-95" value="Spoke VPC" style="points=[[0,0],[0.25,0],[0.5,0],[0.75,0],[1,0],[1,0.25],[1,0.5],[1,0.75],[1,1],[0.75,1],[0.5,1],[0.25,1],[0,1],[0,0.75],[0,0.5],[0,0.25]];outlineConnect=0;gradientColor=none;html=1;whiteSpace=wrap;fontSize=12;fontStyle=0;container=1;pointerEvents=0;collapsible=0;recursiveResize=0;shape=mxgraph.aws4.group;grIcon=mxgraph.aws4.group_vpc2;strokeColor=#8C4FFF;fillColor=none;verticalAlign=top;align=left;spacingLeft=30;fontColor=#AAB7B8;dashed=0;" vertex="1" parent="ec1KaOO2xXqTTTjsOEB1-45">
          <mxGeometry x="236.5" y="760" width="190" height="230" as="geometry" />
        </mxCell>
        <mxCell id="ec1KaOO2xXqTTTjsOEB1-96" value="EC2 instance" style="sketch=0;points=[[0,0,0],[0.25,0,0],[0.5,0,0],[0.75,0,0],[1,0,0],[0,1,0],[0.25,1,0],[0.5,1,0],[0.75,1,0],[1,1,0],[0,0.25,0],[0,0.5,0],[0,0.75,0],[1,0.25,0],[1,0.5,0],[1,0.75,0]];outlineConnect=0;fontColor=#232F3E;fillColor=#ED7100;strokeColor=#ffffff;dashed=0;verticalLabelPosition=bottom;verticalAlign=top;align=center;html=1;fontSize=12;fontStyle=0;aspect=fixed;shape=mxgraph.aws4.resourceIcon;resIcon=mxgraph.aws4.ec2;" vertex="1" parent="ec1KaOO2xXqTTTjsOEB1-95">
          <mxGeometry x="65" y="40" width="60" height="60" as="geometry" />
        </mxCell>
        <mxCell id="ec1KaOO2xXqTTTjsOEB1-97" value="EC2 Instance Connect&amp;nbsp;&lt;div&gt;endpoint&lt;/div&gt;" style="sketch=0;outlineConnect=0;fontColor=#232F3E;gradientColor=none;fillColor=#8C4FFF;strokeColor=none;dashed=0;verticalLabelPosition=bottom;verticalAlign=top;align=center;html=1;fontSize=12;fontStyle=0;aspect=fixed;pointerEvents=1;shape=mxgraph.aws4.endpoints;" vertex="1" parent="ec1KaOO2xXqTTTjsOEB1-95">
          <mxGeometry x="70" y="140" width="50" height="50" as="geometry" />
        </mxCell>
        <mxCell id="ec1KaOO2xXqTTTjsOEB1-46" value="Region 2" style="points=[[0,0],[0.25,0],[0.5,0],[0.75,0],[1,0],[1,0.25],[1,0.5],[1,0.75],[1,1],[0.75,1],[0.5,1],[0.25,1],[0,1],[0,0.75],[0,0.5],[0,0.25]];outlineConnect=0;gradientColor=none;html=1;whiteSpace=wrap;fontSize=12;fontStyle=0;container=1;pointerEvents=0;collapsible=0;recursiveResize=0;shape=mxgraph.aws4.group;grIcon=mxgraph.aws4.group_region;strokeColor=#00A4A6;fillColor=none;verticalAlign=top;align=left;spacingLeft=30;fontColor=#147EBA;dashed=1;" vertex="1" parent="ec1KaOO2xXqTTTjsOEB1-44">
          <mxGeometry x="475" y="130" width="435" height="1030" as="geometry" />
        </mxCell>
        <mxCell id="ec1KaOO2xXqTTTjsOEB1-54" style="edgeStyle=orthogonalEdgeStyle;rounded=0;orthogonalLoop=1;jettySize=auto;html=1;exitX=0.5;exitY=1;exitDx=0;exitDy=0;entryX=0.089;entryY=0.035;entryDx=0;entryDy=0;entryPerimeter=0;endArrow=none;endFill=0;fillColor=#f8cecc;strokeColor=#b85450;strokeWidth=2;" edge="1" parent="ec1KaOO2xXqTTTjsOEB1-46">
          <mxGeometry relative="1" as="geometry">
            <mxPoint x="199.41000000000008" y="289" as="sourcePoint" />
            <mxPoint x="199.41000000000008" y="394" as="targetPoint" />
          </mxGeometry>
        </mxCell>
        <mxCell id="ec1KaOO2xXqTTTjsOEB1-60" style="edgeStyle=orthogonalEdgeStyle;rounded=0;orthogonalLoop=1;jettySize=auto;html=1;dashed=1;" edge="1" parent="ec1KaOO2xXqTTTjsOEB1-46" source="ec1KaOO2xXqTTTjsOEB1-61" target="ec1KaOO2xXqTTTjsOEB1-62">
          <mxGeometry relative="1" as="geometry" />
        </mxCell>
        <mxCell id="ec1KaOO2xXqTTTjsOEB1-61" value="Amazon EventBridge" style="sketch=0;points=[[0,0,0],[0.25,0,0],[0.5,0,0],[0.75,0,0],[1,0,0],[0,1,0],[0.25,1,0],[0.5,1,0],[0.75,1,0],[1,1,0],[0,0.25,0],[0,0.5,0],[0,0.75,0],[1,0.25,0],[1,0.5,0],[1,0.75,0]];outlineConnect=0;fontColor=#232F3E;fillColor=#E7157B;strokeColor=#ffffff;dashed=0;verticalLabelPosition=bottom;verticalAlign=top;align=center;html=1;fontSize=12;fontStyle=0;aspect=fixed;shape=mxgraph.aws4.resourceIcon;resIcon=mxgraph.aws4.eventbridge;" vertex="1" parent="ec1KaOO2xXqTTTjsOEB1-46">
          <mxGeometry x="35" y="630" width="60" height="60" as="geometry" />
        </mxCell>
        <mxCell id="ec1KaOO2xXqTTTjsOEB1-62" value="Lambda function" style="sketch=0;points=[[0,0,0],[0.25,0,0],[0.5,0,0],[0.75,0,0],[1,0,0],[0,1,0],[0.25,1,0],[0.5,1,0],[0.75,1,0],[1,1,0],[0,0.25,0],[0,0.5,0],[0,0.75,0],[1,0.25,0],[1,0.5,0],[1,0.75,0]];outlineConnect=0;fontColor=#232F3E;fillColor=#ED7100;strokeColor=#ffffff;dashed=0;verticalLabelPosition=bottom;verticalAlign=top;align=center;html=1;fontSize=12;fontStyle=0;aspect=fixed;shape=mxgraph.aws4.resourceIcon;resIcon=mxgraph.aws4.lambda;" vertex="1" parent="ec1KaOO2xXqTTTjsOEB1-46">
          <mxGeometry x="160" y="635" width="50" height="50" as="geometry" />
        </mxCell>
        <mxCell id="ec1KaOO2xXqTTTjsOEB1-99" value="Spoke AWS Account" style="points=[[0,0],[0.25,0],[0.5,0],[0.75,0],[1,0],[1,0.25],[1,0.5],[1,0.75],[1,1],[0.75,1],[0.5,1],[0.25,1],[0,1],[0,0.75],[0,0.5],[0,0.25]];outlineConnect=0;gradientColor=none;html=1;whiteSpace=wrap;fontSize=12;fontStyle=0;container=1;pointerEvents=0;collapsible=0;recursiveResize=0;shape=mxgraph.aws4.group;grIcon=mxgraph.aws4.group_account;strokeColor=#CD2264;fillColor=none;verticalAlign=top;align=left;spacingLeft=30;fontColor=#CD2264;dashed=0;" vertex="1" parent="ec1KaOO2xXqTTTjsOEB1-46">
          <mxGeometry x="35" y="751" width="383" height="260" as="geometry" />
        </mxCell>
        <mxCell id="ec1KaOO2xXqTTTjsOEB1-100" value="Spoke VPC" style="points=[[0,0],[0.25,0],[0.5,0],[0.75,0],[1,0],[1,0.25],[1,0.5],[1,0.75],[1,1],[0.75,1],[0.5,1],[0.25,1],[0,1],[0,0.75],[0,0.5],[0,0.25]];outlineConnect=0;gradientColor=none;html=1;whiteSpace=wrap;fontSize=12;fontStyle=0;container=1;pointerEvents=0;collapsible=0;recursiveResize=0;shape=mxgraph.aws4.group;grIcon=mxgraph.aws4.group_vpc2;strokeColor=#8C4FFF;fillColor=none;verticalAlign=top;align=left;spacingLeft=30;fontColor=#AAB7B8;dashed=0;" vertex="1" parent="ec1KaOO2xXqTTTjsOEB1-46">
          <mxGeometry x="201.5" y="761" width="190" height="230" as="geometry" />
        </mxCell>
        <mxCell id="ec1KaOO2xXqTTTjsOEB1-101" value="EC2 instance" style="sketch=0;points=[[0,0,0],[0.25,0,0],[0.5,0,0],[0.75,0,0],[1,0,0],[0,1,0],[0.25,1,0],[0.5,1,0],[0.75,1,0],[1,1,0],[0,0.25,0],[0,0.5,0],[0,0.75,0],[1,0.25,0],[1,0.5,0],[1,0.75,0]];outlineConnect=0;fontColor=#232F3E;fillColor=#ED7100;strokeColor=#ffffff;dashed=0;verticalLabelPosition=bottom;verticalAlign=top;align=center;html=1;fontSize=12;fontStyle=0;aspect=fixed;shape=mxgraph.aws4.resourceIcon;resIcon=mxgraph.aws4.ec2;" vertex="1" parent="ec1KaOO2xXqTTTjsOEB1-100">
          <mxGeometry x="65" y="40" width="60" height="60" as="geometry" />
        </mxCell>
        <mxCell id="ec1KaOO2xXqTTTjsOEB1-102" value="EC2 Instance Connect&amp;nbsp;&lt;div&gt;endpoint&lt;/div&gt;" style="sketch=0;outlineConnect=0;fontColor=#232F3E;gradientColor=none;fillColor=#8C4FFF;strokeColor=none;dashed=0;verticalLabelPosition=bottom;verticalAlign=top;align=center;html=1;fontSize=12;fontStyle=0;aspect=fixed;pointerEvents=1;shape=mxgraph.aws4.endpoints;" vertex="1" parent="ec1KaOO2xXqTTTjsOEB1-100">
          <mxGeometry x="70" y="140" width="50" height="50" as="geometry" />
        </mxCell>
        <mxCell id="ec1KaOO2xXqTTTjsOEB1-103" style="edgeStyle=orthogonalEdgeStyle;rounded=0;orthogonalLoop=1;jettySize=auto;html=1;exitX=0.5;exitY=0;exitDx=0;exitDy=0;entryX=0.197;entryY=0.986;entryDx=0;entryDy=0;entryPerimeter=0;fillColor=#008a00;strokeColor=#005700;strokeWidth=2;endArrow=none;endFill=0;" edge="1" parent="ec1KaOO2xXqTTTjsOEB1-46" source="ec1KaOO2xXqTTTjsOEB1-100">
          <mxGeometry relative="1" as="geometry">
            <mxPoint x="297" y="600" as="targetPoint" />
          </mxGeometry>
        </mxCell>
        <mxCell id="ec1KaOO2xXqTTTjsOEB1-47" value="Region 3" style="points=[[0,0],[0.25,0],[0.5,0],[0.75,0],[1,0],[1,0.25],[1,0.5],[1,0.75],[1,1],[0.75,1],[0.5,1],[0.25,1],[0,1],[0,0.75],[0,0.5],[0,0.25]];outlineConnect=0;gradientColor=none;html=1;whiteSpace=wrap;fontSize=12;fontStyle=0;container=1;pointerEvents=0;collapsible=0;recursiveResize=0;shape=mxgraph.aws4.group;grIcon=mxgraph.aws4.group_region;strokeColor=#00A4A6;fillColor=none;verticalAlign=top;align=left;spacingLeft=30;fontColor=#147EBA;dashed=1;" vertex="1" parent="ec1KaOO2xXqTTTjsOEB1-44">
          <mxGeometry x="920" y="130" width="450" height="1030" as="geometry" />
        </mxCell>
        <mxCell id="ec1KaOO2xXqTTTjsOEB1-5" value="" style="rounded=0;whiteSpace=wrap;html=1;fillColor=none;strokeColor=#6600CC;strokeWidth=2;" vertex="1" parent="ec1KaOO2xXqTTTjsOEB1-47">
          <mxGeometry x="-830" y="334" width="1220" height="280" as="geometry" />
        </mxCell>
        <mxCell id="ec1KaOO2xXqTTTjsOEB1-7" value="hub" style="rounded=1;whiteSpace=wrap;html=1;fillColor=#008a00;fontColor=#ffffff;strokeColor=#005700;" vertex="1" parent="ec1KaOO2xXqTTTjsOEB1-47">
          <mxGeometry x="-810" y="569" width="1180" height="30" as="geometry" />
        </mxCell>
        <mxCell id="ec1KaOO2xXqTTTjsOEB1-8" value="inspected" style="rounded=1;whiteSpace=wrap;html=1;fillColor=#f0a30a;fontColor=#000000;strokeColor=#BD7000;" vertex="1" parent="ec1KaOO2xXqTTTjsOEB1-47">
          <mxGeometry x="-810" y="535" width="1180" height="30" as="geometry" />
        </mxCell>
        <mxCell id="ec1KaOO2xXqTTTjsOEB1-9" value="onlyshared" style="rounded=1;whiteSpace=wrap;html=1;fillColor=#0050ef;fontColor=#ffffff;strokeColor=#001DBC;" vertex="1" parent="ec1KaOO2xXqTTTjsOEB1-47">
          <mxGeometry x="-810" y="499" width="1180" height="30" as="geometry" />
        </mxCell>
        <mxCell id="ec1KaOO2xXqTTTjsOEB1-4" value="" style="sketch=0;points=[[0,0,0],[0.25,0,0],[0.5,0,0],[0.75,0,0],[1,0,0],[0,1,0],[0.25,1,0],[0.5,1,0],[0.75,1,0],[1,1,0],[0,0.25,0],[0,0.5,0],[0,0.75,0],[1,0.25,0],[1,0.5,0],[1,0.75,0]];outlineConnect=0;fontColor=#232F3E;fillColor=#8C4FFF;strokeColor=#ffffff;dashed=0;verticalLabelPosition=bottom;verticalAlign=top;align=center;html=1;fontSize=12;fontStyle=0;aspect=fixed;shape=mxgraph.aws4.resourceIcon;resIcon=mxgraph.aws4.cloud_wan;" vertex="1" parent="ec1KaOO2xXqTTTjsOEB1-47">
          <mxGeometry x="-830" y="334" width="50" height="50" as="geometry" />
        </mxCell>
        <mxCell id="ec1KaOO2xXqTTTjsOEB1-6" value="&lt;font style=&quot;font-size: 14px;&quot;&gt;Core Network&lt;/font&gt;" style="text;html=1;align=center;verticalAlign=middle;whiteSpace=wrap;rounded=0;" vertex="1" parent="ec1KaOO2xXqTTTjsOEB1-47">
          <mxGeometry x="-770" y="344" width="90" height="30" as="geometry" />
        </mxCell>
        <mxCell id="ec1KaOO2xXqTTTjsOEB1-11" value="inspection" style="rounded=1;whiteSpace=wrap;html=1;fillColor=#f8cecc;strokeColor=#b85450;" vertex="1" parent="ec1KaOO2xXqTTTjsOEB1-47">
          <mxGeometry x="-810" y="394" width="1180" height="30" as="geometry" />
        </mxCell>
        <mxCell id="ec1KaOO2xXqTTTjsOEB1-10" value="blocked" style="rounded=1;whiteSpace=wrap;html=1;fillColor=#a20025;fontColor=#ffffff;strokeColor=#6F0000;" vertex="1" parent="ec1KaOO2xXqTTTjsOEB1-47">
          <mxGeometry x="-810" y="464" width="1180" height="30" as="geometry" />
        </mxCell>
        <mxCell id="ec1KaOO2xXqTTTjsOEB1-25" value="shared services" style="rounded=1;whiteSpace=wrap;html=1;fillColor=#fff2cc;strokeColor=#d6b656;" vertex="1" parent="ec1KaOO2xXqTTTjsOEB1-47">
          <mxGeometry x="-810" y="429" width="1180" height="30" as="geometry" />
        </mxCell>
        <mxCell id="ec1KaOO2xXqTTTjsOEB1-55" style="edgeStyle=orthogonalEdgeStyle;rounded=0;orthogonalLoop=1;jettySize=auto;html=1;exitX=0.5;exitY=1;exitDx=0;exitDy=0;entryX=0.089;entryY=0.035;entryDx=0;entryDy=0;entryPerimeter=0;endArrow=none;endFill=0;fillColor=#f8cecc;strokeColor=#b85450;strokeWidth=2;" edge="1" parent="ec1KaOO2xXqTTTjsOEB1-47">
          <mxGeometry relative="1" as="geometry">
            <mxPoint x="220" y="289" as="sourcePoint" />
            <mxPoint x="220" y="394" as="targetPoint" />
          </mxGeometry>
        </mxCell>
        <mxCell id="ec1KaOO2xXqTTTjsOEB1-63" style="edgeStyle=orthogonalEdgeStyle;rounded=0;orthogonalLoop=1;jettySize=auto;html=1;dashed=1;" edge="1" parent="ec1KaOO2xXqTTTjsOEB1-47" source="ec1KaOO2xXqTTTjsOEB1-64" target="ec1KaOO2xXqTTTjsOEB1-65">
          <mxGeometry relative="1" as="geometry" />
        </mxCell>
        <mxCell id="ec1KaOO2xXqTTTjsOEB1-64" value="Amazon EventBridge" style="sketch=0;points=[[0,0,0],[0.25,0,0],[0.5,0,0],[0.75,0,0],[1,0,0],[0,1,0],[0.25,1,0],[0.5,1,0],[0.75,1,0],[1,1,0],[0,0.25,0],[0,0.5,0],[0,0.75,0],[1,0.25,0],[1,0.5,0],[1,0.75,0]];outlineConnect=0;fontColor=#232F3E;fillColor=#E7157B;strokeColor=#ffffff;dashed=0;verticalLabelPosition=bottom;verticalAlign=top;align=center;html=1;fontSize=12;fontStyle=0;aspect=fixed;shape=mxgraph.aws4.resourceIcon;resIcon=mxgraph.aws4.eventbridge;" vertex="1" parent="ec1KaOO2xXqTTTjsOEB1-47">
          <mxGeometry x="34" y="630" width="60" height="60" as="geometry" />
        </mxCell>
        <mxCell id="ec1KaOO2xXqTTTjsOEB1-65" value="Lambda function" style="sketch=0;points=[[0,0,0],[0.25,0,0],[0.5,0,0],[0.75,0,0],[1,0,0],[0,1,0],[0.25,1,0],[0.5,1,0],[0.75,1,0],[1,1,0],[0,0.25,0],[0,0.5,0],[0,0.75,0],[1,0.25,0],[1,0.5,0],[1,0.75,0]];outlineConnect=0;fontColor=#232F3E;fillColor=#ED7100;strokeColor=#ffffff;dashed=0;verticalLabelPosition=bottom;verticalAlign=top;align=center;html=1;fontSize=12;fontStyle=0;aspect=fixed;shape=mxgraph.aws4.resourceIcon;resIcon=mxgraph.aws4.lambda;" vertex="1" parent="ec1KaOO2xXqTTTjsOEB1-47">
          <mxGeometry x="159" y="635" width="50" height="50" as="geometry" />
        </mxCell>
        <mxCell id="ec1KaOO2xXqTTTjsOEB1-104" value="Spoke AWS Account" style="points=[[0,0],[0.25,0],[0.5,0],[0.75,0],[1,0],[1,0.25],[1,0.5],[1,0.75],[1,1],[0.75,1],[0.5,1],[0.25,1],[0,1],[0,0.75],[0,0.5],[0,0.25]];outlineConnect=0;gradientColor=none;html=1;whiteSpace=wrap;fontSize=12;fontStyle=0;container=1;pointerEvents=0;collapsible=0;recursiveResize=0;shape=mxgraph.aws4.group;grIcon=mxgraph.aws4.group_account;strokeColor=#CD2264;fillColor=none;verticalAlign=top;align=left;spacingLeft=30;fontColor=#CD2264;dashed=0;" vertex="1" parent="ec1KaOO2xXqTTTjsOEB1-47">
          <mxGeometry x="30" y="750" width="383" height="260" as="geometry" />
        </mxCell>
        <mxCell id="ec1KaOO2xXqTTTjsOEB1-105" value="Spoke VPC" style="points=[[0,0],[0.25,0],[0.5,0],[0.75,0],[1,0],[1,0.25],[1,0.5],[1,0.75],[1,1],[0.75,1],[0.5,1],[0.25,1],[0,1],[0,0.75],[0,0.5],[0,0.25]];outlineConnect=0;gradientColor=none;html=1;whiteSpace=wrap;fontSize=12;fontStyle=0;container=1;pointerEvents=0;collapsible=0;recursiveResize=0;shape=mxgraph.aws4.group;grIcon=mxgraph.aws4.group_vpc2;strokeColor=#8C4FFF;fillColor=none;verticalAlign=top;align=left;spacingLeft=30;fontColor=#AAB7B8;dashed=0;" vertex="1" parent="ec1KaOO2xXqTTTjsOEB1-47">
          <mxGeometry x="196.5" y="760" width="190" height="230" as="geometry" />
        </mxCell>
        <mxCell id="ec1KaOO2xXqTTTjsOEB1-106" value="EC2 instance" style="sketch=0;points=[[0,0,0],[0.25,0,0],[0.5,0,0],[0.75,0,0],[1,0,0],[0,1,0],[0.25,1,0],[0.5,1,0],[0.75,1,0],[1,1,0],[0,0.25,0],[0,0.5,0],[0,0.75,0],[1,0.25,0],[1,0.5,0],[1,0.75,0]];outlineConnect=0;fontColor=#232F3E;fillColor=#ED7100;strokeColor=#ffffff;dashed=0;verticalLabelPosition=bottom;verticalAlign=top;align=center;html=1;fontSize=12;fontStyle=0;aspect=fixed;shape=mxgraph.aws4.resourceIcon;resIcon=mxgraph.aws4.ec2;" vertex="1" parent="ec1KaOO2xXqTTTjsOEB1-105">
          <mxGeometry x="65" y="40" width="60" height="60" as="geometry" />
        </mxCell>
        <mxCell id="ec1KaOO2xXqTTTjsOEB1-107" value="EC2 Instance Connect&amp;nbsp;&lt;div&gt;endpoint&lt;/div&gt;" style="sketch=0;outlineConnect=0;fontColor=#232F3E;gradientColor=none;fillColor=#8C4FFF;strokeColor=none;dashed=0;verticalLabelPosition=bottom;verticalAlign=top;align=center;html=1;fontSize=12;fontStyle=0;aspect=fixed;pointerEvents=1;shape=mxgraph.aws4.endpoints;" vertex="1" parent="ec1KaOO2xXqTTTjsOEB1-105">
          <mxGeometry x="70" y="140" width="50" height="50" as="geometry" />
        </mxCell>
        <mxCell id="ec1KaOO2xXqTTTjsOEB1-108" style="edgeStyle=orthogonalEdgeStyle;rounded=0;orthogonalLoop=1;jettySize=auto;html=1;exitX=0.5;exitY=0;exitDx=0;exitDy=0;entryX=0.197;entryY=0.986;entryDx=0;entryDy=0;entryPerimeter=0;fillColor=#008a00;strokeColor=#005700;strokeWidth=2;endArrow=none;endFill=0;" edge="1" parent="ec1KaOO2xXqTTTjsOEB1-47" source="ec1KaOO2xXqTTTjsOEB1-105">
          <mxGeometry relative="1" as="geometry">
            <mxPoint x="292" y="599" as="targetPoint" />
          </mxGeometry>
        </mxCell>
        <mxCell id="ec1KaOO2xXqTTTjsOEB1-110" style="edgeStyle=orthogonalEdgeStyle;rounded=0;orthogonalLoop=1;jettySize=auto;html=1;exitX=0.5;exitY=1;exitDx=0;exitDy=0;entryX=0.216;entryY=0.033;entryDx=0;entryDy=0;entryPerimeter=0;strokeWidth=2;fillColor=#fff2cc;strokeColor=#d6b656;endArrow=none;endFill=0;" edge="1" parent="ec1KaOO2xXqTTTjsOEB1-47">
          <mxGeometry relative="1" as="geometry">
            <mxPoint x="-90" y="289" as="sourcePoint" />
            <mxPoint x="-90" y="429" as="targetPoint" />
            <Array as="points">
              <mxPoint x="-90" y="339" />
              <mxPoint x="-90" y="339" />
            </Array>
          </mxGeometry>
        </mxCell>
        <mxCell id="ec1KaOO2xXqTTTjsOEB1-111" style="edgeStyle=orthogonalEdgeStyle;rounded=0;orthogonalLoop=1;jettySize=auto;html=1;exitX=0.5;exitY=1;exitDx=0;exitDy=0;entryX=0.216;entryY=0.033;entryDx=0;entryDy=0;entryPerimeter=0;strokeWidth=2;fillColor=#fff2cc;strokeColor=#d6b656;endArrow=none;endFill=0;" edge="1" parent="ec1KaOO2xXqTTTjsOEB1-47">
          <mxGeometry relative="1" as="geometry">
            <mxPoint x="340" y="289" as="sourcePoint" />
            <mxPoint x="340" y="429" as="targetPoint" />
          </mxGeometry>
        </mxCell>
        <mxCell id="ec1KaOO2xXqTTTjsOEB1-49" value="AWS Organizations" style="sketch=0;points=[[0,0,0],[0.25,0,0],[0.5,0,0],[0.75,0,0],[1,0,0],[0,1,0],[0.25,1,0],[0.5,1,0],[0.75,1,0],[1,1,0],[0,0.25,0],[0,0.5,0],[0,0.75,0],[1,0.25,0],[1,0.5,0],[1,0.75,0]];points=[[0,0,0],[0.25,0,0],[0.5,0,0],[0.75,0,0],[1,0,0],[0,1,0],[0.25,1,0],[0.5,1,0],[0.75,1,0],[1,1,0],[0,0.25,0],[0,0.5,0],[0,0.75,0],[1,0.25,0],[1,0.5,0],[1,0.75,0]];outlineConnect=0;fontColor=#232F3E;fillColor=#E7157B;strokeColor=#ffffff;dashed=0;verticalLabelPosition=bottom;verticalAlign=top;align=center;html=1;fontSize=12;fontStyle=0;aspect=fixed;shape=mxgraph.aws4.resourceIcon;resIcon=mxgraph.aws4.organizations;" vertex="1" parent="ec1KaOO2xXqTTTjsOEB1-44">
          <mxGeometry x="1040" y="20" width="60" height="60" as="geometry" />
        </mxCell>
        <mxCell id="ec1KaOO2xXqTTTjsOEB1-50" value="AWS Systems Manager&lt;div&gt;(Parameter Store)&lt;/div&gt;" style="sketch=0;points=[[0,0,0],[0.25,0,0],[0.5,0,0],[0.75,0,0],[1,0,0],[0,1,0],[0.25,1,0],[0.5,1,0],[0.75,1,0],[1,1,0],[0,0.25,0],[0,0.5,0],[0,0.75,0],[1,0.25,0],[1,0.5,0],[1,0.75,0]];points=[[0,0,0],[0.25,0,0],[0.5,0,0],[0.75,0,0],[1,0,0],[0,1,0],[0.25,1,0],[0.5,1,0],[0.75,1,0],[1,1,0],[0,0.25,0],[0,0.5,0],[0,0.75,0],[1,0.25,0],[1,0.5,0],[1,0.75,0]];outlineConnect=0;fontColor=#232F3E;fillColor=#E7157B;strokeColor=#ffffff;dashed=0;verticalLabelPosition=bottom;verticalAlign=top;align=center;html=1;fontSize=12;fontStyle=0;aspect=fixed;shape=mxgraph.aws4.resourceIcon;resIcon=mxgraph.aws4.systems_manager;" vertex="1" parent="ec1KaOO2xXqTTTjsOEB1-44">
          <mxGeometry x="1170" y="20" width="60" height="60" as="geometry" />
        </mxCell>
        <mxCell id="ec1KaOO2xXqTTTjsOEB1-51" value="Amazon VPC IPAM" style="sketch=0;points=[[0,0,0],[0.25,0,0],[0.5,0,0],[0.75,0,0],[1,0,0],[0,1,0],[0.25,1,0],[0.5,1,0],[0.75,1,0],[1,1,0],[0,0.25,0],[0,0.5,0],[0,0.75,0],[1,0.25,0],[1,0.5,0],[1,0.75,0]];outlineConnect=0;fontColor=#232F3E;fillColor=#8C4FFF;strokeColor=#ffffff;dashed=0;verticalLabelPosition=bottom;verticalAlign=top;align=center;html=1;fontSize=12;fontStyle=0;aspect=fixed;shape=mxgraph.aws4.resourceIcon;resIcon=mxgraph.aws4.vpc;" vertex="1" parent="ec1KaOO2xXqTTTjsOEB1-44">
          <mxGeometry x="1310" y="20" width="60" height="60" as="geometry" />
        </mxCell>
        <mxCell id="ec1KaOO2xXqTTTjsOEB1-98" style="edgeStyle=orthogonalEdgeStyle;rounded=0;orthogonalLoop=1;jettySize=auto;html=1;exitX=0.5;exitY=0;exitDx=0;exitDy=0;entryX=0.197;entryY=0.986;entryDx=0;entryDy=0;entryPerimeter=0;fillColor=#008a00;strokeColor=#005700;strokeWidth=2;endArrow=none;endFill=0;" edge="1" parent="ec1KaOO2xXqTTTjsOEB1-44" source="ec1KaOO2xXqTTTjsOEB1-95" target="ec1KaOO2xXqTTTjsOEB1-7">
          <mxGeometry relative="1" as="geometry" />
        </mxCell>
        <mxCell id="ec1KaOO2xXqTTTjsOEB1-52" style="edgeStyle=orthogonalEdgeStyle;rounded=0;orthogonalLoop=1;jettySize=auto;html=1;exitX=0.5;exitY=1;exitDx=0;exitDy=0;entryX=0.089;entryY=0.035;entryDx=0;entryDy=0;entryPerimeter=0;endArrow=none;endFill=0;fillColor=#f8cecc;strokeColor=#b85450;strokeWidth=2;" edge="1" parent="1" source="ec1KaOO2xXqTTTjsOEB1-13" target="ec1KaOO2xXqTTTjsOEB1-11">
          <mxGeometry relative="1" as="geometry" />
        </mxCell>
        <mxCell id="ec1KaOO2xXqTTTjsOEB1-109" style="edgeStyle=orthogonalEdgeStyle;rounded=0;orthogonalLoop=1;jettySize=auto;html=1;exitX=0.5;exitY=1;exitDx=0;exitDy=0;entryX=0.216;entryY=0.033;entryDx=0;entryDy=0;entryPerimeter=0;strokeWidth=2;fillColor=#fff2cc;strokeColor=#d6b656;endArrow=none;endFill=0;" edge="1" parent="1" source="ec1KaOO2xXqTTTjsOEB1-26" target="ec1KaOO2xXqTTTjsOEB1-25">
          <mxGeometry relative="1" as="geometry" />
        </mxCell>
      </root>
    </mxGraphModel>
  </diagram>
</mxfile>
